%TF.GenerationSoftware,KiCad,Pcbnew,no-vcs-found-ad9916e~61~ubuntu16.04.1*%
%TF.CreationDate,2017-11-07T22:17:39+02:00*%
%TF.ProjectId,scanner,7363616E6E65722E6B696361645F7063,rev?*%
%TF.SameCoordinates,Original*%
%TF.FileFunction,Copper,L1,Top,Signal*%
%TF.FilePolarity,Positive*%
%FSLAX46Y46*%
G04 Gerber Fmt 4.6, Leading zero omitted, Abs format (unit mm)*
G04 Created by KiCad (PCBNEW no-vcs-found-ad9916e~61~ubuntu16.04.1) date Tue Nov  7 22:17:39 2017*
%MOMM*%
%LPD*%
G01*
G04 APERTURE LIST*
%TA.AperFunction,SMDPad,CuDef*%
%ADD10R,0.500000X0.900000*%
%TD*%
%TA.AperFunction,ComponentPad*%
%ADD11C,2.000000*%
%TD*%
%TA.AperFunction,ComponentPad*%
%ADD12R,2.000000X2.000000*%
%TD*%
%TA.AperFunction,ComponentPad*%
%ADD13O,1.700000X1.700000*%
%TD*%
%TA.AperFunction,ComponentPad*%
%ADD14R,1.700000X1.700000*%
%TD*%
%TA.AperFunction,ComponentPad*%
%ADD15C,3.000000*%
%TD*%
%TA.AperFunction,SMDPad,CuDef*%
%ADD16R,0.750000X0.800000*%
%TD*%
%TA.AperFunction,SMDPad,CuDef*%
%ADD17R,0.800000X0.750000*%
%TD*%
%TA.AperFunction,SMDPad,CuDef*%
%ADD18R,0.800000X0.800000*%
%TD*%
%TA.AperFunction,ComponentPad*%
%ADD19O,2.300000X1.500000*%
%TD*%
%TA.AperFunction,ComponentPad*%
%ADD20R,2.300000X1.500000*%
%TD*%
%TA.AperFunction,SMDPad,CuDef*%
%ADD21R,0.600000X1.500000*%
%TD*%
%TA.AperFunction,ViaPad*%
%ADD22C,1.600000*%
%TD*%
%TA.AperFunction,Conductor*%
%ADD23C,1.000000*%
%TD*%
%TA.AperFunction,Conductor*%
%ADD24C,0.600000*%
%TD*%
%TA.AperFunction,Conductor*%
%ADD25C,2.000000*%
%TD*%
%TA.AperFunction,Conductor*%
%ADD26C,0.800000*%
%TD*%
%TA.AperFunction,Conductor*%
%ADD27C,0.254000*%
%TD*%
G04 APERTURE END LIST*
D10*
%TO.P,R6,1*%
%TO.N,Net-(J1-Pad2)*%
X108850000Y-142400000D03*
%TO.P,R6,2*%
%TO.N,Net-(BZ1-Pad2)*%
X110350000Y-142400000D03*
%TD*%
%TO.P,R5,2*%
%TO.N,Net-(D1-Pad1)*%
X102350000Y-134600000D03*
%TO.P,R5,1*%
%TO.N,Net-(J1-Pad2)*%
X100850000Y-134600000D03*
%TD*%
D11*
%TO.P,BZ1,2*%
%TO.N,Net-(BZ1-Pad2)*%
X112500000Y-141310000D03*
D12*
%TO.P,BZ1,1*%
%TO.N,VCC*%
X112500000Y-133690000D03*
%TD*%
D13*
%TO.P,J2,4*%
%TO.N,/RXD*%
X102810000Y-110400000D03*
%TO.P,J2,3*%
%TO.N,/TXD*%
X100270000Y-110400000D03*
%TO.P,J2,2*%
%TO.N,+3V3*%
X97730000Y-110400000D03*
D14*
%TO.P,J2,1*%
%TO.N,GND*%
X95190000Y-110400000D03*
%TD*%
D15*
%TO.P,J1,1*%
%TO.N,GND*%
X103300000Y-137500000D03*
%TO.P,J1,2*%
%TO.N,Net-(J1-Pad2)*%
X100800000Y-142500000D03*
%TO.P,J1,3*%
%TO.N,VCC*%
X98300000Y-137500000D03*
%TO.P,J1,4*%
X95800000Y-142500000D03*
%TO.P,J1,5*%
%TO.N,/SWITCH*%
X93300000Y-137500000D03*
%TO.P,J1,6*%
%TO.N,GND*%
X90800000Y-142500000D03*
%TO.P,J1,7*%
%TO.N,Net-(J1-Pad7)*%
X88300000Y-137500000D03*
%TO.P,J1,8*%
%TO.N,Net-(J1-Pad8)*%
X85800000Y-142500000D03*
%TO.P,J1,9*%
%TO.N,Net-(J1-Pad9)*%
X83300000Y-137500000D03*
%TO.P,J1,10*%
%TO.N,Net-(J1-Pad10)*%
X80800000Y-142500000D03*
%TD*%
D16*
%TO.P,C3,1*%
%TO.N,+3V3*%
X91500000Y-125750000D03*
%TO.P,C3,2*%
%TO.N,GND*%
X91500000Y-124250000D03*
%TD*%
%TO.P,C2,2*%
%TO.N,GND*%
X95000000Y-125350000D03*
%TO.P,C2,1*%
%TO.N,+3V3*%
X95000000Y-123850000D03*
%TD*%
D17*
%TO.P,C1,1*%
%TO.N,VCC*%
X96750000Y-130400000D03*
%TO.P,C1,2*%
%TO.N,GND*%
X95250000Y-130400000D03*
%TD*%
D18*
%TO.P,D1,1*%
%TO.N,Net-(D1-Pad1)*%
X102400000Y-132800000D03*
%TO.P,D1,2*%
%TO.N,VCC*%
X100800000Y-132800000D03*
%TD*%
D10*
%TO.P,R4,1*%
%TO.N,Net-(J1-Pad10)*%
X83250000Y-128000000D03*
%TO.P,R4,2*%
%TO.N,Net-(J1-Pad9)*%
X84750000Y-128000000D03*
%TD*%
%TO.P,R3,2*%
%TO.N,GND*%
X87750000Y-129500000D03*
%TO.P,R3,1*%
%TO.N,Net-(J1-Pad8)*%
X86250000Y-129500000D03*
%TD*%
%TO.P,R2,1*%
%TO.N,Net-(J1-Pad7)*%
X87750000Y-128000000D03*
%TO.P,R2,2*%
%TO.N,Net-(J1-Pad8)*%
X86250000Y-128000000D03*
%TD*%
%TO.P,R1,2*%
%TO.N,Net-(J1-Pad7)*%
X89250000Y-128000000D03*
%TO.P,R1,1*%
%TO.N,+3V3*%
X90750000Y-128000000D03*
%TD*%
D19*
%TO.P,U1,3*%
%TO.N,+3V3*%
X97200000Y-123520000D03*
%TO.P,U1,2*%
%TO.N,GND*%
X97200000Y-126060000D03*
D20*
%TO.P,U1,1*%
%TO.N,VCC*%
X97200000Y-128600000D03*
%TD*%
D21*
%TO.P,U2,14*%
%TO.N,+3V3*%
X89810000Y-125700000D03*
%TO.P,U2,13*%
X88540000Y-125700000D03*
%TO.P,U2,12*%
%TO.N,Net-(J1-Pad7)*%
X87270000Y-125700000D03*
%TO.P,U2,11*%
%TO.N,Net-(J1-Pad8)*%
X86000000Y-125700000D03*
%TO.P,U2,10*%
%TO.N,Net-(J1-Pad9)*%
X84730000Y-125700000D03*
%TO.P,U2,9*%
%TO.N,Net-(J1-Pad10)*%
X83460000Y-125700000D03*
%TO.P,U2,8*%
%TO.N,+3V3*%
X82190000Y-125700000D03*
%TO.P,U2,7*%
%TO.N,GND*%
X82190000Y-120300000D03*
%TO.P,U2,6*%
X83460000Y-120300000D03*
%TO.P,U2,5*%
%TO.N,/TXD*%
X84730000Y-120300000D03*
%TO.P,U2,4*%
%TO.N,+3V3*%
X86000000Y-120300000D03*
%TO.P,U2,3*%
%TO.N,GND*%
X87270000Y-120300000D03*
%TO.P,U2,2*%
%TO.N,/RXD*%
X88540000Y-120300000D03*
%TO.P,U2,1*%
%TO.N,Net-(U2-Pad1)*%
X89810000Y-120300000D03*
%TD*%
D22*
%TO.N,+3V3*%
X94399996Y-122000000D03*
%TO.N,GND*%
X105200000Y-137400000D03*
X105200000Y-140200000D03*
X105200000Y-134800000D03*
X94200000Y-126800000D03*
X92200000Y-128400000D03*
X91999996Y-120600000D03*
X107800000Y-131000000D03*
X82750000Y-118500000D03*
X86750000Y-118250000D03*
X91500000Y-123250000D03*
X88000000Y-131500000D03*
%TO.N,/TXD*%
X102400000Y-118400000D03*
%TO.N,/RXD*%
X105000000Y-118800000D03*
%TD*%
D23*
%TO.N,+3V3*%
X94399996Y-122000000D02*
X94399996Y-123249996D01*
X94399996Y-123249996D02*
X95000000Y-123850000D01*
X91500000Y-125750000D02*
X92250000Y-125750000D01*
X92250000Y-125750000D02*
X94250000Y-123750000D01*
X94250000Y-123750000D02*
X94875000Y-123750000D01*
X95000000Y-123850000D02*
X96870000Y-123850000D01*
X96870000Y-123850000D02*
X97200000Y-123520000D01*
D24*
X86000000Y-120300000D02*
X86000000Y-121650000D01*
X88540000Y-124350000D02*
X88540000Y-125700000D01*
X86000000Y-121650000D02*
X88540000Y-124190000D01*
X88540000Y-124190000D02*
X88540000Y-124350000D01*
X91500000Y-125750000D02*
X89860000Y-125750000D01*
X89860000Y-125750000D02*
X89810000Y-125700000D01*
X89810000Y-125700000D02*
X88540000Y-125700000D01*
X90750000Y-128000000D02*
X90750000Y-126640000D01*
X90750000Y-126640000D02*
X89810000Y-125700000D01*
D23*
%TO.N,GND*%
X105200000Y-139400000D02*
X105200000Y-140200000D01*
X103300000Y-137500000D02*
X105200000Y-139400000D01*
X97200000Y-126060000D02*
X94940000Y-126060000D01*
X94940000Y-126060000D02*
X94200000Y-126800000D01*
D25*
X91500000Y-123250000D02*
X91500000Y-121099996D01*
X91500000Y-121099996D02*
X91999996Y-120600000D01*
D26*
X83460000Y-120300000D02*
X83460000Y-119210000D01*
X83460000Y-119210000D02*
X82750000Y-118500000D01*
X87270000Y-120300000D02*
X87270000Y-118770000D01*
X87270000Y-118770000D02*
X86750000Y-118250000D01*
D23*
X91500000Y-124250000D02*
X91500000Y-123250000D01*
D26*
X87750000Y-129500000D02*
X87750000Y-131250000D01*
X87750000Y-131250000D02*
X88000000Y-131500000D01*
D24*
%TO.N,/TXD*%
X84730000Y-117870000D02*
X85800000Y-116800000D01*
X85800000Y-116800000D02*
X88200000Y-116800000D01*
X89400000Y-118000000D02*
X102000000Y-118000000D01*
X102000000Y-118000000D02*
X102400000Y-118400000D01*
X88200000Y-116800000D02*
X89400000Y-118000000D01*
X84730000Y-120300000D02*
X84730000Y-117870000D01*
%TO.N,/RXD*%
X101575999Y-119700001D02*
X104099999Y-119700001D01*
X100825998Y-118950000D02*
X101575999Y-119700001D01*
X88540000Y-118950000D02*
X100825998Y-118950000D01*
X88540000Y-120300000D02*
X88540000Y-118950000D01*
X104099999Y-119700001D02*
X105000000Y-118800000D01*
%TO.N,VCC*%
X96750000Y-130400000D02*
X96750000Y-129050000D01*
X96750000Y-129050000D02*
X97200000Y-128600000D01*
D23*
X100800000Y-131400000D02*
X101200000Y-131000000D01*
X107090000Y-133690000D02*
X112500000Y-133690000D01*
X104400000Y-131000000D02*
X107090000Y-133690000D01*
X101200000Y-131000000D02*
X104400000Y-131000000D01*
X100800000Y-132800000D02*
X100800000Y-131400000D01*
X97450000Y-130800000D02*
X97450000Y-132550000D01*
X97450000Y-132550000D02*
X97200000Y-132800000D01*
D25*
X97200000Y-128600000D02*
X97200000Y-132800000D01*
D23*
X100800000Y-132800000D02*
X97200000Y-132800000D01*
D25*
X97200000Y-132800000D02*
X97200000Y-136400000D01*
X97200000Y-136400000D02*
X98300000Y-137500000D01*
D26*
X98300000Y-137500000D02*
X97500000Y-137500000D01*
D25*
X95800000Y-142500000D02*
X95800000Y-140000000D01*
X95800000Y-140000000D02*
X98300000Y-137500000D01*
D26*
%TO.N,Net-(J1-Pad7)*%
X89250000Y-128000000D02*
X89250000Y-128200000D01*
X89250000Y-128200000D02*
X89500000Y-128450000D01*
X89500000Y-128450000D02*
X89500000Y-136500000D01*
X89500000Y-136500000D02*
X88300000Y-137500000D01*
%TO.N,Net-(J1-Pad8)*%
X86250000Y-129500000D02*
X86250000Y-134750000D01*
X85800000Y-135200000D02*
X85800000Y-140378680D01*
X86250000Y-134750000D02*
X85800000Y-135200000D01*
X85800000Y-140378680D02*
X85800000Y-142500000D01*
%TO.N,Net-(J1-Pad9)*%
X84750000Y-128000000D02*
X84750000Y-132250000D01*
X84750000Y-132250000D02*
X83300000Y-133700000D01*
X83300000Y-133700000D02*
X83300000Y-137500000D01*
%TO.N,Net-(J1-Pad10)*%
X83250000Y-128000000D02*
X83250000Y-130250000D01*
X83250000Y-130250000D02*
X80800000Y-132700000D01*
X80800000Y-132700000D02*
X80800000Y-140378680D01*
X80800000Y-140378680D02*
X80800000Y-142500000D01*
D24*
X83460000Y-125700000D02*
X83460000Y-127790000D01*
X83460000Y-127790000D02*
X83250000Y-128000000D01*
D26*
X83250000Y-128000000D02*
X83250000Y-128250000D01*
D24*
%TO.N,Net-(J1-Pad9)*%
X84730000Y-125700000D02*
X84730000Y-127980000D01*
X84730000Y-127980000D02*
X84750000Y-128000000D01*
%TO.N,Net-(J1-Pad8)*%
X86000000Y-125700000D02*
X86000000Y-127750000D01*
X86000000Y-127750000D02*
X86250000Y-128000000D01*
D26*
X86250000Y-128000000D02*
X86250000Y-129500000D01*
D24*
%TO.N,Net-(J1-Pad7)*%
X87270000Y-125700000D02*
X87270000Y-127520000D01*
X87270000Y-127520000D02*
X87750000Y-128000000D01*
D26*
X87750000Y-128000000D02*
X89250000Y-128000000D01*
D23*
%TO.N,Net-(D1-Pad1)*%
X102400000Y-132800000D02*
X102400000Y-134550000D01*
X102400000Y-134550000D02*
X102350000Y-134600000D01*
%TO.N,Net-(BZ1-Pad2)*%
X110350000Y-142400000D02*
X111410000Y-142400000D01*
X111410000Y-142400000D02*
X112500000Y-141310000D01*
%TO.N,Net-(J1-Pad2)*%
X108850000Y-142400000D02*
X100900000Y-142400000D01*
X100900000Y-142400000D02*
X100800000Y-142500000D01*
X100850000Y-134600000D02*
X100850000Y-142450000D01*
X100850000Y-142450000D02*
X100800000Y-142500000D01*
%TD*%
D27*
%TO.N,GND*%
G36*
X95127000Y-125223000D02*
X95147000Y-125223000D01*
X95147000Y-125477000D01*
X95127000Y-125477000D01*
X95127000Y-126226250D01*
X95285750Y-126385000D01*
X95466951Y-126385000D01*
X95457682Y-126401185D01*
X95471827Y-126472684D01*
X95730855Y-126949540D01*
X96044725Y-127203609D01*
X95802235Y-127251843D01*
X95592191Y-127392191D01*
X95451843Y-127602235D01*
X95402560Y-127850000D01*
X95402560Y-129350000D01*
X95431294Y-129494456D01*
X95377000Y-129548750D01*
X95377000Y-130273000D01*
X95397000Y-130273000D01*
X95397000Y-130527000D01*
X95377000Y-130527000D01*
X95377000Y-131251250D01*
X95535750Y-131410000D01*
X95565000Y-131410000D01*
X95565000Y-136399995D01*
X95564999Y-136400000D01*
X95689457Y-137025688D01*
X95998923Y-137488837D01*
X95344737Y-138143023D01*
X95434628Y-137926541D01*
X95435370Y-137077185D01*
X95111020Y-136292200D01*
X94510959Y-135691091D01*
X93726541Y-135365372D01*
X92877185Y-135364630D01*
X92092200Y-135688980D01*
X91491091Y-136289041D01*
X91165372Y-137073459D01*
X91164630Y-137922815D01*
X91488980Y-138707800D01*
X92089041Y-139308909D01*
X92873459Y-139634628D01*
X93722815Y-139635370D01*
X94283621Y-139403649D01*
X94164999Y-140000000D01*
X94165000Y-140000005D01*
X94165000Y-141115435D01*
X93991091Y-141289041D01*
X93665372Y-142073459D01*
X93664630Y-142922815D01*
X93988980Y-143707800D01*
X94589041Y-144308909D01*
X95145570Y-144540000D01*
X91474209Y-144540000D01*
X91974582Y-144332739D01*
X92134365Y-144013970D01*
X90800000Y-142679605D01*
X89465635Y-144013970D01*
X89625418Y-144332739D01*
X90154141Y-144540000D01*
X86453627Y-144540000D01*
X87007800Y-144311020D01*
X87608909Y-143710959D01*
X87934628Y-142926541D01*
X87935335Y-142116187D01*
X88657277Y-142116187D01*
X88673503Y-142965387D01*
X88967261Y-143674582D01*
X89286030Y-143834365D01*
X90620395Y-142500000D01*
X90979605Y-142500000D01*
X92313970Y-143834365D01*
X92632739Y-143674582D01*
X92942723Y-142883813D01*
X92926497Y-142034613D01*
X92632739Y-141325418D01*
X92313970Y-141165635D01*
X90979605Y-142500000D01*
X90620395Y-142500000D01*
X89286030Y-141165635D01*
X88967261Y-141325418D01*
X88657277Y-142116187D01*
X87935335Y-142116187D01*
X87935370Y-142077185D01*
X87611020Y-141292200D01*
X87305384Y-140986030D01*
X89465635Y-140986030D01*
X90800000Y-142320395D01*
X92134365Y-140986030D01*
X91974582Y-140667261D01*
X91183813Y-140357277D01*
X90334613Y-140373503D01*
X89625418Y-140667261D01*
X89465635Y-140986030D01*
X87305384Y-140986030D01*
X87010959Y-140691091D01*
X86835000Y-140618026D01*
X86835000Y-139054424D01*
X87089041Y-139308909D01*
X87873459Y-139634628D01*
X88722815Y-139635370D01*
X89507800Y-139311020D01*
X90108909Y-138710959D01*
X90434628Y-137926541D01*
X90435370Y-137077185D01*
X90402670Y-136998046D01*
X90416429Y-136981022D01*
X90429859Y-136935522D01*
X90456215Y-136896077D01*
X90486623Y-136743206D01*
X90530750Y-136593705D01*
X90525745Y-136546527D01*
X90535000Y-136500000D01*
X90535000Y-130685750D01*
X94215000Y-130685750D01*
X94215000Y-130901310D01*
X94311673Y-131134699D01*
X94490302Y-131313327D01*
X94723691Y-131410000D01*
X94964250Y-131410000D01*
X95123000Y-131251250D01*
X95123000Y-130527000D01*
X94373750Y-130527000D01*
X94215000Y-130685750D01*
X90535000Y-130685750D01*
X90535000Y-129898690D01*
X94215000Y-129898690D01*
X94215000Y-130114250D01*
X94373750Y-130273000D01*
X95123000Y-130273000D01*
X95123000Y-129548750D01*
X94964250Y-129390000D01*
X94723691Y-129390000D01*
X94490302Y-129486673D01*
X94311673Y-129665301D01*
X94215000Y-129898690D01*
X90535000Y-129898690D01*
X90535000Y-129097440D01*
X91000000Y-129097440D01*
X91247765Y-129048157D01*
X91457809Y-128907809D01*
X91598157Y-128697765D01*
X91647440Y-128450000D01*
X91647440Y-128188826D01*
X91685000Y-128000000D01*
X91685000Y-126885000D01*
X92250000Y-126885000D01*
X92684346Y-126798603D01*
X93052566Y-126552566D01*
X94128130Y-125477002D01*
X94148748Y-125477002D01*
X93990000Y-125635750D01*
X93990000Y-125876309D01*
X94086673Y-126109698D01*
X94265301Y-126288327D01*
X94498690Y-126385000D01*
X94714250Y-126385000D01*
X94873000Y-126226250D01*
X94873000Y-125477000D01*
X94853000Y-125477000D01*
X94853000Y-125223000D01*
X94873000Y-125223000D01*
X94873000Y-125203000D01*
X95127000Y-125203000D01*
X95127000Y-125223000D01*
X95127000Y-125223000D01*
G37*
X95127000Y-125223000D02*
X95147000Y-125223000D01*
X95147000Y-125477000D01*
X95127000Y-125477000D01*
X95127000Y-126226250D01*
X95285750Y-126385000D01*
X95466951Y-126385000D01*
X95457682Y-126401185D01*
X95471827Y-126472684D01*
X95730855Y-126949540D01*
X96044725Y-127203609D01*
X95802235Y-127251843D01*
X95592191Y-127392191D01*
X95451843Y-127602235D01*
X95402560Y-127850000D01*
X95402560Y-129350000D01*
X95431294Y-129494456D01*
X95377000Y-129548750D01*
X95377000Y-130273000D01*
X95397000Y-130273000D01*
X95397000Y-130527000D01*
X95377000Y-130527000D01*
X95377000Y-131251250D01*
X95535750Y-131410000D01*
X95565000Y-131410000D01*
X95565000Y-136399995D01*
X95564999Y-136400000D01*
X95689457Y-137025688D01*
X95998923Y-137488837D01*
X95344737Y-138143023D01*
X95434628Y-137926541D01*
X95435370Y-137077185D01*
X95111020Y-136292200D01*
X94510959Y-135691091D01*
X93726541Y-135365372D01*
X92877185Y-135364630D01*
X92092200Y-135688980D01*
X91491091Y-136289041D01*
X91165372Y-137073459D01*
X91164630Y-137922815D01*
X91488980Y-138707800D01*
X92089041Y-139308909D01*
X92873459Y-139634628D01*
X93722815Y-139635370D01*
X94283621Y-139403649D01*
X94164999Y-140000000D01*
X94165000Y-140000005D01*
X94165000Y-141115435D01*
X93991091Y-141289041D01*
X93665372Y-142073459D01*
X93664630Y-142922815D01*
X93988980Y-143707800D01*
X94589041Y-144308909D01*
X95145570Y-144540000D01*
X91474209Y-144540000D01*
X91974582Y-144332739D01*
X92134365Y-144013970D01*
X90800000Y-142679605D01*
X89465635Y-144013970D01*
X89625418Y-144332739D01*
X90154141Y-144540000D01*
X86453627Y-144540000D01*
X87007800Y-144311020D01*
X87608909Y-143710959D01*
X87934628Y-142926541D01*
X87935335Y-142116187D01*
X88657277Y-142116187D01*
X88673503Y-142965387D01*
X88967261Y-143674582D01*
X89286030Y-143834365D01*
X90620395Y-142500000D01*
X90979605Y-142500000D01*
X92313970Y-143834365D01*
X92632739Y-143674582D01*
X92942723Y-142883813D01*
X92926497Y-142034613D01*
X92632739Y-141325418D01*
X92313970Y-141165635D01*
X90979605Y-142500000D01*
X90620395Y-142500000D01*
X89286030Y-141165635D01*
X88967261Y-141325418D01*
X88657277Y-142116187D01*
X87935335Y-142116187D01*
X87935370Y-142077185D01*
X87611020Y-141292200D01*
X87305384Y-140986030D01*
X89465635Y-140986030D01*
X90800000Y-142320395D01*
X92134365Y-140986030D01*
X91974582Y-140667261D01*
X91183813Y-140357277D01*
X90334613Y-140373503D01*
X89625418Y-140667261D01*
X89465635Y-140986030D01*
X87305384Y-140986030D01*
X87010959Y-140691091D01*
X86835000Y-140618026D01*
X86835000Y-139054424D01*
X87089041Y-139308909D01*
X87873459Y-139634628D01*
X88722815Y-139635370D01*
X89507800Y-139311020D01*
X90108909Y-138710959D01*
X90434628Y-137926541D01*
X90435370Y-137077185D01*
X90402670Y-136998046D01*
X90416429Y-136981022D01*
X90429859Y-136935522D01*
X90456215Y-136896077D01*
X90486623Y-136743206D01*
X90530750Y-136593705D01*
X90525745Y-136546527D01*
X90535000Y-136500000D01*
X90535000Y-130685750D01*
X94215000Y-130685750D01*
X94215000Y-130901310D01*
X94311673Y-131134699D01*
X94490302Y-131313327D01*
X94723691Y-131410000D01*
X94964250Y-131410000D01*
X95123000Y-131251250D01*
X95123000Y-130527000D01*
X94373750Y-130527000D01*
X94215000Y-130685750D01*
X90535000Y-130685750D01*
X90535000Y-129898690D01*
X94215000Y-129898690D01*
X94215000Y-130114250D01*
X94373750Y-130273000D01*
X95123000Y-130273000D01*
X95123000Y-129548750D01*
X94964250Y-129390000D01*
X94723691Y-129390000D01*
X94490302Y-129486673D01*
X94311673Y-129665301D01*
X94215000Y-129898690D01*
X90535000Y-129898690D01*
X90535000Y-129097440D01*
X91000000Y-129097440D01*
X91247765Y-129048157D01*
X91457809Y-128907809D01*
X91598157Y-128697765D01*
X91647440Y-128450000D01*
X91647440Y-128188826D01*
X91685000Y-128000000D01*
X91685000Y-126885000D01*
X92250000Y-126885000D01*
X92684346Y-126798603D01*
X93052566Y-126552566D01*
X94128130Y-125477002D01*
X94148748Y-125477002D01*
X93990000Y-125635750D01*
X93990000Y-125876309D01*
X94086673Y-126109698D01*
X94265301Y-126288327D01*
X94498690Y-126385000D01*
X94714250Y-126385000D01*
X94873000Y-126226250D01*
X94873000Y-125477000D01*
X94853000Y-125477000D01*
X94853000Y-125223000D01*
X94873000Y-125223000D01*
X94873000Y-125203000D01*
X95127000Y-125203000D01*
X95127000Y-125223000D01*
G36*
X119290000Y-144540000D02*
X101453627Y-144540000D01*
X102007800Y-144311020D01*
X102608909Y-143710959D01*
X102681974Y-143535000D01*
X108850000Y-143535000D01*
X109038826Y-143497440D01*
X109100000Y-143497440D01*
X109347765Y-143448157D01*
X109557809Y-143307809D01*
X109600000Y-143244666D01*
X109642191Y-143307809D01*
X109852235Y-143448157D01*
X110100000Y-143497440D01*
X110161174Y-143497440D01*
X110350000Y-143535000D01*
X111410000Y-143535000D01*
X111844346Y-143448603D01*
X112212566Y-143202566D01*
X112470157Y-142944975D01*
X112823795Y-142945284D01*
X113424943Y-142696894D01*
X113885278Y-142237363D01*
X114134716Y-141636648D01*
X114135284Y-140986205D01*
X113886894Y-140385057D01*
X113427363Y-139924722D01*
X112826648Y-139675284D01*
X112176205Y-139674716D01*
X111575057Y-139923106D01*
X111114722Y-140382637D01*
X110865284Y-140983352D01*
X110865038Y-141265000D01*
X110350000Y-141265000D01*
X110161174Y-141302560D01*
X110100000Y-141302560D01*
X109852235Y-141351843D01*
X109642191Y-141492191D01*
X109600000Y-141555334D01*
X109557809Y-141492191D01*
X109347765Y-141351843D01*
X109100000Y-141302560D01*
X109038826Y-141302560D01*
X108850000Y-141265000D01*
X102583867Y-141265000D01*
X102010959Y-140691091D01*
X101985000Y-140680312D01*
X101985000Y-139052603D01*
X102125418Y-139332739D01*
X102916187Y-139642723D01*
X103765387Y-139626497D01*
X104474582Y-139332739D01*
X104634365Y-139013970D01*
X103300000Y-137679605D01*
X103285858Y-137693748D01*
X103106253Y-137514143D01*
X103120395Y-137500000D01*
X103479605Y-137500000D01*
X104813970Y-138834365D01*
X105132739Y-138674582D01*
X105442723Y-137883813D01*
X105426497Y-137034613D01*
X105132739Y-136325418D01*
X104813970Y-136165635D01*
X103479605Y-137500000D01*
X103120395Y-137500000D01*
X103106253Y-137485858D01*
X103285858Y-137306253D01*
X103300000Y-137320395D01*
X104634365Y-135986030D01*
X104474582Y-135667261D01*
X103683813Y-135357277D01*
X103188389Y-135366743D01*
X103202566Y-135352566D01*
X103448604Y-134984345D01*
X103535000Y-134550000D01*
X103535000Y-132800000D01*
X103448603Y-132365654D01*
X103437219Y-132348617D01*
X103398157Y-132152235D01*
X103386641Y-132135000D01*
X103929868Y-132135000D01*
X106287433Y-134492566D01*
X106650263Y-134735001D01*
X106655654Y-134738603D01*
X107090000Y-134825000D01*
X110879413Y-134825000D01*
X110901843Y-134937765D01*
X111042191Y-135147809D01*
X111252235Y-135288157D01*
X111500000Y-135337440D01*
X113500000Y-135337440D01*
X113747765Y-135288157D01*
X113957809Y-135147809D01*
X114098157Y-134937765D01*
X114147440Y-134690000D01*
X114147440Y-132690000D01*
X114098157Y-132442235D01*
X113957809Y-132232191D01*
X113747765Y-132091843D01*
X113500000Y-132042560D01*
X111500000Y-132042560D01*
X111252235Y-132091843D01*
X111042191Y-132232191D01*
X110901843Y-132442235D01*
X110879413Y-132555000D01*
X107560133Y-132555000D01*
X105202566Y-130197434D01*
X105021291Y-130076310D01*
X104834346Y-129951397D01*
X104400000Y-129865000D01*
X101200000Y-129865000D01*
X100781943Y-129948157D01*
X100765654Y-129951397D01*
X100397434Y-130197434D01*
X99997434Y-130597434D01*
X99751397Y-130965654D01*
X99665000Y-131400000D01*
X99665000Y-131665000D01*
X98835000Y-131665000D01*
X98835000Y-129767115D01*
X98948157Y-129597765D01*
X98997440Y-129350000D01*
X98997440Y-127850000D01*
X98948157Y-127602235D01*
X98807809Y-127392191D01*
X98597765Y-127251843D01*
X98355275Y-127203609D01*
X98669145Y-126949540D01*
X98928173Y-126472684D01*
X98942318Y-126401185D01*
X98819656Y-126187000D01*
X97327000Y-126187000D01*
X97327000Y-126207000D01*
X97073000Y-126207000D01*
X97073000Y-126187000D01*
X97053000Y-126187000D01*
X97053000Y-125933000D01*
X97073000Y-125933000D01*
X97073000Y-125913000D01*
X97327000Y-125913000D01*
X97327000Y-125933000D01*
X98819656Y-125933000D01*
X98942318Y-125718815D01*
X98928173Y-125647316D01*
X98669145Y-125170460D01*
X98247349Y-124829028D01*
X98154733Y-124801613D01*
X98164987Y-124799573D01*
X98614313Y-124499343D01*
X98914543Y-124050017D01*
X99019970Y-123520000D01*
X98914543Y-122989983D01*
X98614313Y-122540657D01*
X98164987Y-122240427D01*
X97634970Y-122135000D01*
X96765030Y-122135000D01*
X96235013Y-122240427D01*
X95785687Y-122540657D01*
X95669195Y-122715000D01*
X95656896Y-122715000D01*
X95834746Y-122286691D01*
X95835244Y-121715813D01*
X95617239Y-121188200D01*
X95213919Y-120784176D01*
X94686687Y-120565250D01*
X94115809Y-120564752D01*
X93588196Y-120782757D01*
X93184172Y-121186077D01*
X92965246Y-121713309D01*
X92964748Y-122284187D01*
X93182753Y-122811800D01*
X93264996Y-122894187D01*
X93264996Y-123129872D01*
X92510000Y-123884868D01*
X92510000Y-123723691D01*
X92413327Y-123490302D01*
X92234699Y-123311673D01*
X92001310Y-123215000D01*
X91785750Y-123215000D01*
X91627000Y-123373750D01*
X91627000Y-124123000D01*
X91647000Y-124123000D01*
X91647000Y-124377000D01*
X91627000Y-124377000D01*
X91627000Y-124397000D01*
X91373000Y-124397000D01*
X91373000Y-124377000D01*
X90648750Y-124377000D01*
X90547278Y-124478472D01*
X90357765Y-124351843D01*
X90110000Y-124302560D01*
X89510000Y-124302560D01*
X89475000Y-124309522D01*
X89475000Y-124190000D01*
X89403827Y-123832191D01*
X89331330Y-123723691D01*
X90490000Y-123723691D01*
X90490000Y-123964250D01*
X90648750Y-124123000D01*
X91373000Y-124123000D01*
X91373000Y-123373750D01*
X91214250Y-123215000D01*
X90998690Y-123215000D01*
X90765301Y-123311673D01*
X90586673Y-123490302D01*
X90490000Y-123723691D01*
X89331330Y-123723691D01*
X89201145Y-123528855D01*
X87357290Y-121685000D01*
X87397002Y-121685000D01*
X87397002Y-121526252D01*
X87555750Y-121685000D01*
X87696310Y-121685000D01*
X87913028Y-121595232D01*
X87992235Y-121648157D01*
X88240000Y-121697440D01*
X88840000Y-121697440D01*
X89087765Y-121648157D01*
X89175000Y-121589868D01*
X89262235Y-121648157D01*
X89510000Y-121697440D01*
X90110000Y-121697440D01*
X90357765Y-121648157D01*
X90567809Y-121507809D01*
X90708157Y-121297765D01*
X90757440Y-121050000D01*
X90757440Y-119885000D01*
X100438708Y-119885000D01*
X100914854Y-120361146D01*
X101218190Y-120563828D01*
X101277555Y-120575637D01*
X101575999Y-120635002D01*
X101576004Y-120635001D01*
X104099999Y-120635001D01*
X104457808Y-120563828D01*
X104761144Y-120361146D01*
X104887388Y-120234902D01*
X105284187Y-120235248D01*
X105811800Y-120017243D01*
X106215824Y-119613923D01*
X106434750Y-119086691D01*
X106435248Y-118515813D01*
X106217243Y-117988200D01*
X105813923Y-117584176D01*
X105286691Y-117365250D01*
X104715813Y-117364752D01*
X104188200Y-117582757D01*
X103784176Y-117986077D01*
X103782906Y-117989136D01*
X103617243Y-117588200D01*
X103213923Y-117184176D01*
X103076228Y-117127000D01*
X119290000Y-117127000D01*
X119290000Y-144540000D01*
X119290000Y-144540000D01*
G37*
X119290000Y-144540000D02*
X101453627Y-144540000D01*
X102007800Y-144311020D01*
X102608909Y-143710959D01*
X102681974Y-143535000D01*
X108850000Y-143535000D01*
X109038826Y-143497440D01*
X109100000Y-143497440D01*
X109347765Y-143448157D01*
X109557809Y-143307809D01*
X109600000Y-143244666D01*
X109642191Y-143307809D01*
X109852235Y-143448157D01*
X110100000Y-143497440D01*
X110161174Y-143497440D01*
X110350000Y-143535000D01*
X111410000Y-143535000D01*
X111844346Y-143448603D01*
X112212566Y-143202566D01*
X112470157Y-142944975D01*
X112823795Y-142945284D01*
X113424943Y-142696894D01*
X113885278Y-142237363D01*
X114134716Y-141636648D01*
X114135284Y-140986205D01*
X113886894Y-140385057D01*
X113427363Y-139924722D01*
X112826648Y-139675284D01*
X112176205Y-139674716D01*
X111575057Y-139923106D01*
X111114722Y-140382637D01*
X110865284Y-140983352D01*
X110865038Y-141265000D01*
X110350000Y-141265000D01*
X110161174Y-141302560D01*
X110100000Y-141302560D01*
X109852235Y-141351843D01*
X109642191Y-141492191D01*
X109600000Y-141555334D01*
X109557809Y-141492191D01*
X109347765Y-141351843D01*
X109100000Y-141302560D01*
X109038826Y-141302560D01*
X108850000Y-141265000D01*
X102583867Y-141265000D01*
X102010959Y-140691091D01*
X101985000Y-140680312D01*
X101985000Y-139052603D01*
X102125418Y-139332739D01*
X102916187Y-139642723D01*
X103765387Y-139626497D01*
X104474582Y-139332739D01*
X104634365Y-139013970D01*
X103300000Y-137679605D01*
X103285858Y-137693748D01*
X103106253Y-137514143D01*
X103120395Y-137500000D01*
X103479605Y-137500000D01*
X104813970Y-138834365D01*
X105132739Y-138674582D01*
X105442723Y-137883813D01*
X105426497Y-137034613D01*
X105132739Y-136325418D01*
X104813970Y-136165635D01*
X103479605Y-137500000D01*
X103120395Y-137500000D01*
X103106253Y-137485858D01*
X103285858Y-137306253D01*
X103300000Y-137320395D01*
X104634365Y-135986030D01*
X104474582Y-135667261D01*
X103683813Y-135357277D01*
X103188389Y-135366743D01*
X103202566Y-135352566D01*
X103448604Y-134984345D01*
X103535000Y-134550000D01*
X103535000Y-132800000D01*
X103448603Y-132365654D01*
X103437219Y-132348617D01*
X103398157Y-132152235D01*
X103386641Y-132135000D01*
X103929868Y-132135000D01*
X106287433Y-134492566D01*
X106650263Y-134735001D01*
X106655654Y-134738603D01*
X107090000Y-134825000D01*
X110879413Y-134825000D01*
X110901843Y-134937765D01*
X111042191Y-135147809D01*
X111252235Y-135288157D01*
X111500000Y-135337440D01*
X113500000Y-135337440D01*
X113747765Y-135288157D01*
X113957809Y-135147809D01*
X114098157Y-134937765D01*
X114147440Y-134690000D01*
X114147440Y-132690000D01*
X114098157Y-132442235D01*
X113957809Y-132232191D01*
X113747765Y-132091843D01*
X113500000Y-132042560D01*
X111500000Y-132042560D01*
X111252235Y-132091843D01*
X111042191Y-132232191D01*
X110901843Y-132442235D01*
X110879413Y-132555000D01*
X107560133Y-132555000D01*
X105202566Y-130197434D01*
X105021291Y-130076310D01*
X104834346Y-129951397D01*
X104400000Y-129865000D01*
X101200000Y-129865000D01*
X100781943Y-129948157D01*
X100765654Y-129951397D01*
X100397434Y-130197434D01*
X99997434Y-130597434D01*
X99751397Y-130965654D01*
X99665000Y-131400000D01*
X99665000Y-131665000D01*
X98835000Y-131665000D01*
X98835000Y-129767115D01*
X98948157Y-129597765D01*
X98997440Y-129350000D01*
X98997440Y-127850000D01*
X98948157Y-127602235D01*
X98807809Y-127392191D01*
X98597765Y-127251843D01*
X98355275Y-127203609D01*
X98669145Y-126949540D01*
X98928173Y-126472684D01*
X98942318Y-126401185D01*
X98819656Y-126187000D01*
X97327000Y-126187000D01*
X97327000Y-126207000D01*
X97073000Y-126207000D01*
X97073000Y-126187000D01*
X97053000Y-126187000D01*
X97053000Y-125933000D01*
X97073000Y-125933000D01*
X97073000Y-125913000D01*
X97327000Y-125913000D01*
X97327000Y-125933000D01*
X98819656Y-125933000D01*
X98942318Y-125718815D01*
X98928173Y-125647316D01*
X98669145Y-125170460D01*
X98247349Y-124829028D01*
X98154733Y-124801613D01*
X98164987Y-124799573D01*
X98614313Y-124499343D01*
X98914543Y-124050017D01*
X99019970Y-123520000D01*
X98914543Y-122989983D01*
X98614313Y-122540657D01*
X98164987Y-122240427D01*
X97634970Y-122135000D01*
X96765030Y-122135000D01*
X96235013Y-122240427D01*
X95785687Y-122540657D01*
X95669195Y-122715000D01*
X95656896Y-122715000D01*
X95834746Y-122286691D01*
X95835244Y-121715813D01*
X95617239Y-121188200D01*
X95213919Y-120784176D01*
X94686687Y-120565250D01*
X94115809Y-120564752D01*
X93588196Y-120782757D01*
X93184172Y-121186077D01*
X92965246Y-121713309D01*
X92964748Y-122284187D01*
X93182753Y-122811800D01*
X93264996Y-122894187D01*
X93264996Y-123129872D01*
X92510000Y-123884868D01*
X92510000Y-123723691D01*
X92413327Y-123490302D01*
X92234699Y-123311673D01*
X92001310Y-123215000D01*
X91785750Y-123215000D01*
X91627000Y-123373750D01*
X91627000Y-124123000D01*
X91647000Y-124123000D01*
X91647000Y-124377000D01*
X91627000Y-124377000D01*
X91627000Y-124397000D01*
X91373000Y-124397000D01*
X91373000Y-124377000D01*
X90648750Y-124377000D01*
X90547278Y-124478472D01*
X90357765Y-124351843D01*
X90110000Y-124302560D01*
X89510000Y-124302560D01*
X89475000Y-124309522D01*
X89475000Y-124190000D01*
X89403827Y-123832191D01*
X89331330Y-123723691D01*
X90490000Y-123723691D01*
X90490000Y-123964250D01*
X90648750Y-124123000D01*
X91373000Y-124123000D01*
X91373000Y-123373750D01*
X91214250Y-123215000D01*
X90998690Y-123215000D01*
X90765301Y-123311673D01*
X90586673Y-123490302D01*
X90490000Y-123723691D01*
X89331330Y-123723691D01*
X89201145Y-123528855D01*
X87357290Y-121685000D01*
X87397002Y-121685000D01*
X87397002Y-121526252D01*
X87555750Y-121685000D01*
X87696310Y-121685000D01*
X87913028Y-121595232D01*
X87992235Y-121648157D01*
X88240000Y-121697440D01*
X88840000Y-121697440D01*
X89087765Y-121648157D01*
X89175000Y-121589868D01*
X89262235Y-121648157D01*
X89510000Y-121697440D01*
X90110000Y-121697440D01*
X90357765Y-121648157D01*
X90567809Y-121507809D01*
X90708157Y-121297765D01*
X90757440Y-121050000D01*
X90757440Y-119885000D01*
X100438708Y-119885000D01*
X100914854Y-120361146D01*
X101218190Y-120563828D01*
X101277555Y-120575637D01*
X101575999Y-120635002D01*
X101576004Y-120635001D01*
X104099999Y-120635001D01*
X104457808Y-120563828D01*
X104761144Y-120361146D01*
X104887388Y-120234902D01*
X105284187Y-120235248D01*
X105811800Y-120017243D01*
X106215824Y-119613923D01*
X106434750Y-119086691D01*
X106435248Y-118515813D01*
X106217243Y-117988200D01*
X105813923Y-117584176D01*
X105286691Y-117365250D01*
X104715813Y-117364752D01*
X104188200Y-117582757D01*
X103784176Y-117986077D01*
X103782906Y-117989136D01*
X103617243Y-117588200D01*
X103213923Y-117184176D01*
X103076228Y-117127000D01*
X119290000Y-117127000D01*
X119290000Y-144540000D01*
G36*
X84068855Y-117208855D02*
X83866173Y-117512191D01*
X83795000Y-117870000D01*
X83795000Y-118915000D01*
X83745750Y-118915000D01*
X83587000Y-119073750D01*
X83587000Y-120173000D01*
X83607000Y-120173000D01*
X83607000Y-120427000D01*
X83587000Y-120427000D01*
X83587000Y-121526250D01*
X83745750Y-121685000D01*
X83886310Y-121685000D01*
X84103028Y-121595232D01*
X84182235Y-121648157D01*
X84430000Y-121697440D01*
X85030000Y-121697440D01*
X85072745Y-121688938D01*
X85136173Y-122007809D01*
X85338855Y-122311145D01*
X87330270Y-124302560D01*
X86970000Y-124302560D01*
X86722235Y-124351843D01*
X86635000Y-124410132D01*
X86547765Y-124351843D01*
X86300000Y-124302560D01*
X85700000Y-124302560D01*
X85452235Y-124351843D01*
X85365000Y-124410132D01*
X85277765Y-124351843D01*
X85030000Y-124302560D01*
X84430000Y-124302560D01*
X84182235Y-124351843D01*
X84095000Y-124410132D01*
X84007765Y-124351843D01*
X83760000Y-124302560D01*
X83160000Y-124302560D01*
X82912235Y-124351843D01*
X82825000Y-124410132D01*
X82737765Y-124351843D01*
X82490000Y-124302560D01*
X81890000Y-124302560D01*
X81642235Y-124351843D01*
X81432191Y-124492191D01*
X81291843Y-124702235D01*
X81242560Y-124950000D01*
X81242560Y-126450000D01*
X81291843Y-126697765D01*
X81432191Y-126907809D01*
X81642235Y-127048157D01*
X81890000Y-127097440D01*
X82490000Y-127097440D01*
X82525000Y-127090478D01*
X82525000Y-127117919D01*
X82401843Y-127302235D01*
X82362201Y-127501530D01*
X82293785Y-127603923D01*
X82215000Y-128000000D01*
X82215000Y-129821289D01*
X80068144Y-131968144D01*
X79843785Y-132303923D01*
X79764999Y-132700000D01*
X79765000Y-132700005D01*
X79765000Y-140617580D01*
X79592200Y-140688980D01*
X78991091Y-141289041D01*
X78710000Y-141965983D01*
X78710000Y-120585750D01*
X81255000Y-120585750D01*
X81255000Y-121176309D01*
X81351673Y-121409698D01*
X81530301Y-121588327D01*
X81763690Y-121685000D01*
X81904250Y-121685000D01*
X82063000Y-121526250D01*
X82063000Y-120427000D01*
X82317000Y-120427000D01*
X82317000Y-121526250D01*
X82475750Y-121685000D01*
X82616310Y-121685000D01*
X82825000Y-121598558D01*
X83033690Y-121685000D01*
X83174250Y-121685000D01*
X83333000Y-121526250D01*
X83333000Y-120427000D01*
X82317000Y-120427000D01*
X82063000Y-120427000D01*
X81413750Y-120427000D01*
X81255000Y-120585750D01*
X78710000Y-120585750D01*
X78710000Y-119423691D01*
X81255000Y-119423691D01*
X81255000Y-120014250D01*
X81413750Y-120173000D01*
X82063000Y-120173000D01*
X82063000Y-119073750D01*
X82317000Y-119073750D01*
X82317000Y-120173000D01*
X83333000Y-120173000D01*
X83333000Y-119073750D01*
X83174250Y-118915000D01*
X83033690Y-118915000D01*
X82825000Y-119001442D01*
X82616310Y-118915000D01*
X82475750Y-118915000D01*
X82317000Y-119073750D01*
X82063000Y-119073750D01*
X81904250Y-118915000D01*
X81763690Y-118915000D01*
X81530301Y-119011673D01*
X81351673Y-119190302D01*
X81255000Y-119423691D01*
X78710000Y-119423691D01*
X78710000Y-117127000D01*
X84150710Y-117127000D01*
X84068855Y-117208855D01*
X84068855Y-117208855D01*
G37*
X84068855Y-117208855D02*
X83866173Y-117512191D01*
X83795000Y-117870000D01*
X83795000Y-118915000D01*
X83745750Y-118915000D01*
X83587000Y-119073750D01*
X83587000Y-120173000D01*
X83607000Y-120173000D01*
X83607000Y-120427000D01*
X83587000Y-120427000D01*
X83587000Y-121526250D01*
X83745750Y-121685000D01*
X83886310Y-121685000D01*
X84103028Y-121595232D01*
X84182235Y-121648157D01*
X84430000Y-121697440D01*
X85030000Y-121697440D01*
X85072745Y-121688938D01*
X85136173Y-122007809D01*
X85338855Y-122311145D01*
X87330270Y-124302560D01*
X86970000Y-124302560D01*
X86722235Y-124351843D01*
X86635000Y-124410132D01*
X86547765Y-124351843D01*
X86300000Y-124302560D01*
X85700000Y-124302560D01*
X85452235Y-124351843D01*
X85365000Y-124410132D01*
X85277765Y-124351843D01*
X85030000Y-124302560D01*
X84430000Y-124302560D01*
X84182235Y-124351843D01*
X84095000Y-124410132D01*
X84007765Y-124351843D01*
X83760000Y-124302560D01*
X83160000Y-124302560D01*
X82912235Y-124351843D01*
X82825000Y-124410132D01*
X82737765Y-124351843D01*
X82490000Y-124302560D01*
X81890000Y-124302560D01*
X81642235Y-124351843D01*
X81432191Y-124492191D01*
X81291843Y-124702235D01*
X81242560Y-124950000D01*
X81242560Y-126450000D01*
X81291843Y-126697765D01*
X81432191Y-126907809D01*
X81642235Y-127048157D01*
X81890000Y-127097440D01*
X82490000Y-127097440D01*
X82525000Y-127090478D01*
X82525000Y-127117919D01*
X82401843Y-127302235D01*
X82362201Y-127501530D01*
X82293785Y-127603923D01*
X82215000Y-128000000D01*
X82215000Y-129821289D01*
X80068144Y-131968144D01*
X79843785Y-132303923D01*
X79764999Y-132700000D01*
X79765000Y-132700005D01*
X79765000Y-140617580D01*
X79592200Y-140688980D01*
X78991091Y-141289041D01*
X78710000Y-141965983D01*
X78710000Y-120585750D01*
X81255000Y-120585750D01*
X81255000Y-121176309D01*
X81351673Y-121409698D01*
X81530301Y-121588327D01*
X81763690Y-121685000D01*
X81904250Y-121685000D01*
X82063000Y-121526250D01*
X82063000Y-120427000D01*
X82317000Y-120427000D01*
X82317000Y-121526250D01*
X82475750Y-121685000D01*
X82616310Y-121685000D01*
X82825000Y-121598558D01*
X83033690Y-121685000D01*
X83174250Y-121685000D01*
X83333000Y-121526250D01*
X83333000Y-120427000D01*
X82317000Y-120427000D01*
X82063000Y-120427000D01*
X81413750Y-120427000D01*
X81255000Y-120585750D01*
X78710000Y-120585750D01*
X78710000Y-119423691D01*
X81255000Y-119423691D01*
X81255000Y-120014250D01*
X81413750Y-120173000D01*
X82063000Y-120173000D01*
X82063000Y-119073750D01*
X82317000Y-119073750D01*
X82317000Y-120173000D01*
X83333000Y-120173000D01*
X83333000Y-119073750D01*
X83174250Y-118915000D01*
X83033690Y-118915000D01*
X82825000Y-119001442D01*
X82616310Y-118915000D01*
X82475750Y-118915000D01*
X82317000Y-119073750D01*
X82063000Y-119073750D01*
X81904250Y-118915000D01*
X81763690Y-118915000D01*
X81530301Y-119011673D01*
X81351673Y-119190302D01*
X81255000Y-119423691D01*
X78710000Y-119423691D01*
X78710000Y-117127000D01*
X84150710Y-117127000D01*
X84068855Y-117208855D01*
G36*
X87875000Y-129373000D02*
X87897000Y-129373000D01*
X87897000Y-129627000D01*
X87875000Y-129627000D01*
X87875000Y-130426250D01*
X88033750Y-130585000D01*
X88126309Y-130585000D01*
X88359698Y-130488327D01*
X88465000Y-130383026D01*
X88465000Y-135365144D01*
X87877185Y-135364630D01*
X87092200Y-135688980D01*
X86835000Y-135945732D01*
X86835000Y-135628711D01*
X86981853Y-135481858D01*
X86981856Y-135481856D01*
X87206215Y-135146077D01*
X87228440Y-135034345D01*
X87285001Y-134750000D01*
X87285000Y-134749995D01*
X87285000Y-130548263D01*
X87373691Y-130585000D01*
X87466250Y-130585000D01*
X87625000Y-130426250D01*
X87625000Y-129627000D01*
X87603000Y-129627000D01*
X87603000Y-129373000D01*
X87625000Y-129373000D01*
X87625000Y-129353000D01*
X87875000Y-129353000D01*
X87875000Y-129373000D01*
X87875000Y-129373000D01*
G37*
X87875000Y-129373000D02*
X87897000Y-129373000D01*
X87897000Y-129627000D01*
X87875000Y-129627000D01*
X87875000Y-130426250D01*
X88033750Y-130585000D01*
X88126309Y-130585000D01*
X88359698Y-130488327D01*
X88465000Y-130383026D01*
X88465000Y-135365144D01*
X87877185Y-135364630D01*
X87092200Y-135688980D01*
X86835000Y-135945732D01*
X86835000Y-135628711D01*
X86981853Y-135481858D01*
X86981856Y-135481856D01*
X87206215Y-135146077D01*
X87228440Y-135034345D01*
X87285001Y-134750000D01*
X87285000Y-134749995D01*
X87285000Y-130548263D01*
X87373691Y-130585000D01*
X87466250Y-130585000D01*
X87625000Y-130426250D01*
X87625000Y-129627000D01*
X87603000Y-129627000D01*
X87603000Y-129373000D01*
X87625000Y-129373000D01*
X87625000Y-129353000D01*
X87875000Y-129353000D01*
X87875000Y-129373000D01*
G36*
X88171216Y-118093506D02*
X87878855Y-118288855D01*
X87676173Y-118592191D01*
X87611962Y-118915000D01*
X87555750Y-118915000D01*
X87397000Y-119073750D01*
X87397000Y-120173000D01*
X87417000Y-120173000D01*
X87417000Y-120427000D01*
X87397000Y-120427000D01*
X87397000Y-120447000D01*
X87143000Y-120447000D01*
X87143000Y-120427000D01*
X87123000Y-120427000D01*
X87123000Y-120173000D01*
X87143000Y-120173000D01*
X87143000Y-119073750D01*
X86984250Y-118915000D01*
X86843690Y-118915000D01*
X86626972Y-119004768D01*
X86547765Y-118951843D01*
X86300000Y-118902560D01*
X85700000Y-118902560D01*
X85665000Y-118909522D01*
X85665000Y-118257290D01*
X86187289Y-117735000D01*
X87812710Y-117735000D01*
X88171216Y-118093506D01*
X88171216Y-118093506D01*
G37*
X88171216Y-118093506D02*
X87878855Y-118288855D01*
X87676173Y-118592191D01*
X87611962Y-118915000D01*
X87555750Y-118915000D01*
X87397000Y-119073750D01*
X87397000Y-120173000D01*
X87417000Y-120173000D01*
X87417000Y-120427000D01*
X87397000Y-120427000D01*
X87397000Y-120447000D01*
X87143000Y-120447000D01*
X87143000Y-120427000D01*
X87123000Y-120427000D01*
X87123000Y-120173000D01*
X87143000Y-120173000D01*
X87143000Y-119073750D01*
X86984250Y-118915000D01*
X86843690Y-118915000D01*
X86626972Y-119004768D01*
X86547765Y-118951843D01*
X86300000Y-118902560D01*
X85700000Y-118902560D01*
X85665000Y-118909522D01*
X85665000Y-118257290D01*
X86187289Y-117735000D01*
X87812710Y-117735000D01*
X88171216Y-118093506D01*
%TD*%
M02*
