M48
;DRILL file {KiCad no-vcs-found-ad9916e~61~ubuntu16.04.1} date Tue Nov  7 22:17:42 2017
;FORMAT={-:-/ absolute / metric / decimal}
FMAT,2
METRIC,TZ
T1C0.600
T2C0.800
T3C0.900
T4C1.000
%
G90
G05
M71
T1
X82.75Y-118.5
X86.75Y-118.25
X88.Y-131.5
X91.5Y-123.25
X92.Y-120.6
X92.2Y-128.4
X94.2Y-126.8
X94.4Y-122.
X102.4Y-118.4
X105.Y-118.8
X105.2Y-134.8
X105.2Y-137.4
X105.2Y-140.2
X107.8Y-131.
T2
X112.5Y-133.69
X112.5Y-141.31
T3
X80.8Y-142.5
X83.3Y-137.5
X85.8Y-142.5
X88.3Y-137.5
X90.8Y-142.5
X93.3Y-137.5
X95.8Y-142.5
X98.3Y-137.5
X100.8Y-142.5
X103.3Y-137.5
T4
X95.19Y-110.4
X97.73Y-110.4
X100.27Y-110.4
X102.81Y-110.4
X97.2Y-123.52
X97.2Y-126.06
X97.2Y-128.6
T0
M30
