M48
;DRILL file {KiCad no-vcs-found-ad9916e~61~ubuntu16.04.1} date Tue Nov  7 23:11:54 2017
;FORMAT={-:-/ absolute / metric / decimal}
FMAT,2
METRIC,TZ
T1C0.600
T2C3.300
T3C3.000
T4C3.300
%
G90
G05
M71
T1
X70.993Y-137.922
X71.755Y-136.271
X71.755Y-139.7
X73.406Y-135.509
X73.406Y-140.335
X75.057Y-136.271
X75.057Y-139.573
X75.819Y-137.922
X138.557Y-137.922
X139.319Y-136.271
X139.319Y-139.7
X140.97Y-135.509
X140.97Y-140.335
X142.621Y-136.271
X142.621Y-139.573
X143.383Y-137.922
T2
X73.406Y-137.922
X140.97Y-137.922
T3
X111.5Y-79.
X124.Y-79.
X136.5Y-79.
X132.Y-108.5
X132.Y-121.
X132.Y-133.5
X132.Y-75.5
X132.Y-88.
X132.Y-100.5
X77.5Y-79.
X90.Y-79.
X102.5Y-79.
X111.5Y-129.
X124.Y-129.
X136.5Y-129.
X77.5Y-129.
X90.Y-129.
X102.5Y-129.
X82.Y-108.5
X82.Y-121.
X82.Y-133.5
X82.Y-75.5
X82.Y-88.
X82.Y-100.5
T4
X140.97Y-70.358
T0
M30
