G04 #@! TF.GenerationSoftware,KiCad,Pcbnew,no-vcs-found-b47a06e~61~ubuntu16.04.1*
G04 #@! TF.CreationDate,2017-12-14T14:59:07+02:00*
G04 #@! TF.ProjectId,controller2,636F6E74726F6C6C6572322E6B696361,rev?*
G04 #@! TF.SameCoordinates,Original*
G04 #@! TF.FileFunction,Copper,L1,Top,Signal*
G04 #@! TF.FilePolarity,Positive*
%FSLAX46Y46*%
G04 Gerber Fmt 4.6, Leading zero omitted, Abs format (unit mm)*
G04 Created by KiCad (PCBNEW no-vcs-found-b47a06e~61~ubuntu16.04.1) date Thu Dec 14 14:59:07 2017*
%MOMM*%
%LPD*%
G01*
G04 APERTURE LIST*
%ADD10O,1.600000X1.600000*%
%ADD11R,1.600000X1.600000*%
%ADD12C,3.000000*%
%ADD13R,1.800000X1.800000*%
%ADD14O,1.800000X1.800000*%
%ADD15C,1.600000*%
%ADD16R,1.727200X1.727200*%
%ADD17O,1.727200X1.727200*%
%ADD18O,1.500000X2.500000*%
%ADD19R,1.500000X2.500000*%
%ADD20R,2.500000X1.500000*%
%ADD21O,2.500000X1.500000*%
%ADD22C,0.800000*%
%ADD23C,2.000000*%
%ADD24C,0.600000*%
G04 APERTURE END LIST*
D10*
X165880000Y-95000000D03*
X173500000Y-92460000D03*
X165880000Y-92460000D03*
D11*
X173500000Y-95000000D03*
X165880000Y-74500000D03*
D10*
X173500000Y-77040000D03*
X165880000Y-77040000D03*
X173500000Y-74500000D03*
X165880000Y-89000000D03*
X173500000Y-86460000D03*
X165880000Y-86460000D03*
D11*
X173500000Y-89000000D03*
X165880000Y-80500000D03*
D10*
X173500000Y-83040000D03*
X165880000Y-83040000D03*
X173500000Y-80500000D03*
X165880000Y-71000000D03*
X173500000Y-68460000D03*
X165880000Y-68460000D03*
D11*
X173500000Y-71000000D03*
D12*
X231000000Y-66200000D03*
X226000000Y-68700000D03*
X231000000Y-71200000D03*
X226000000Y-73700000D03*
X231000000Y-76200000D03*
X226000000Y-78700000D03*
D13*
X219500000Y-83290000D03*
D14*
X219500000Y-80750000D03*
X219500000Y-78210000D03*
D12*
X149000000Y-64800000D03*
X144000000Y-67300000D03*
X209000000Y-58500000D03*
X231500000Y-58500000D03*
X231000000Y-83000000D03*
X226000000Y-85500000D03*
X231000000Y-88000000D03*
X226000000Y-90500000D03*
X231000000Y-93000000D03*
X226000000Y-95500000D03*
X231000000Y-98000000D03*
X226000000Y-100500000D03*
X231000000Y-103000000D03*
X226000000Y-105500000D03*
D15*
X163750000Y-115000000D03*
D11*
X163750000Y-118500000D03*
X203000000Y-60000000D03*
D15*
X203000000Y-56500000D03*
D16*
X143000000Y-74500000D03*
D17*
X145540000Y-74500000D03*
X143000000Y-77040000D03*
X145540000Y-77040000D03*
X143000000Y-79580000D03*
X145540000Y-79580000D03*
X143000000Y-82120000D03*
X145540000Y-82120000D03*
X143000000Y-84660000D03*
X145540000Y-84660000D03*
X143000000Y-87200000D03*
X145540000Y-87200000D03*
X143000000Y-89740000D03*
X145540000Y-89740000D03*
X143000000Y-92280000D03*
X145540000Y-92280000D03*
X143000000Y-94820000D03*
X145540000Y-94820000D03*
X143000000Y-97360000D03*
X145540000Y-97360000D03*
X143000000Y-99900000D03*
X145540000Y-99900000D03*
X143000000Y-102440000D03*
X145540000Y-102440000D03*
X143000000Y-104980000D03*
X145540000Y-104980000D03*
X143000000Y-107520000D03*
X145540000Y-107520000D03*
X143000000Y-110060000D03*
X145540000Y-110060000D03*
X143000000Y-112600000D03*
X145540000Y-112600000D03*
X143000000Y-115140000D03*
X145540000Y-115140000D03*
D18*
X178420000Y-107500000D03*
X180960000Y-107500000D03*
D19*
X183500000Y-107500000D03*
D20*
X157000000Y-117000000D03*
D21*
X157000000Y-114460000D03*
X157000000Y-111920000D03*
D15*
X178500000Y-86750000D03*
X178500000Y-95250000D03*
X220000000Y-74250000D03*
X201500000Y-74250000D03*
X199500000Y-82000000D03*
X201500000Y-94500000D03*
X188500000Y-94500000D03*
X188500000Y-106000000D03*
X201500000Y-82000000D03*
X199500000Y-90500000D03*
X183000000Y-78000000D03*
X190500000Y-89000000D03*
X190500000Y-82500010D03*
X158000000Y-96000000D03*
X158000000Y-100000000D03*
X161000000Y-100000000D03*
X161000000Y-107000000D03*
X162250000Y-84750000D03*
X153205754Y-85705754D03*
X183000000Y-93000000D03*
X191000000Y-100000000D03*
X191000000Y-106000000D03*
X209000000Y-103195020D03*
X209000000Y-106000000D03*
X200004306Y-101895010D03*
X200000000Y-106000000D03*
X215250000Y-76500000D03*
X218250000Y-76500000D03*
X150250000Y-80750001D03*
X150250000Y-88250000D03*
X152049630Y-80787083D03*
X151772803Y-90022797D03*
D22*
X178500000Y-95250000D02*
X178500000Y-86750000D01*
D23*
X201500000Y-74250000D02*
X220000000Y-74250000D01*
D24*
X199500000Y-90500000D02*
X199500000Y-82000000D01*
D23*
X201500000Y-94500000D02*
X201500000Y-82000000D01*
X188500000Y-94500000D02*
X188500000Y-106000000D01*
D24*
X183000000Y-93000000D02*
X183000000Y-78000000D01*
X183000000Y-81500000D02*
X183000000Y-78000000D01*
X190500000Y-89000000D02*
X190500000Y-84000000D01*
X190500000Y-84000000D02*
X190500000Y-82500010D01*
X158000000Y-100000000D02*
X158000000Y-96000000D01*
X161000000Y-107000000D02*
X161000000Y-100000000D01*
X153205754Y-85705754D02*
X154161508Y-84750000D01*
X161118630Y-84750000D02*
X162250000Y-84750000D01*
X154161508Y-84750000D02*
X161118630Y-84750000D01*
X191000000Y-106000000D02*
X191000000Y-100000000D01*
X209000000Y-106000000D02*
X209000000Y-103195020D01*
X200000000Y-101899316D02*
X200004306Y-101895010D01*
X200000000Y-106000000D02*
X200000000Y-101899316D01*
X218250000Y-76500000D02*
X215250000Y-76500000D01*
X150250000Y-88250000D02*
X150250000Y-80750001D01*
X151772803Y-90022797D02*
X151772803Y-81063910D01*
X151772803Y-81063910D02*
X152049630Y-80787083D01*
M02*
