M48
;DRILL file {KiCad no-vcs-found-b47a06e~61~ubuntu16.04.1} date Thu Dec 14 14:59:09 2017
;FORMAT={-:-/ absolute / metric / decimal}
FMAT,2
METRIC,TZ
T1C0.600
T2C0.800
T3C0.900
T4C1.000
T5C1.016
T6C1.300
T7C2.700
T8C3.000
%
G90
G05
M71
T1
X150.25Y-80.75
X150.25Y-88.25
X151.773Y-90.023
X152.05Y-80.787
X153.206Y-85.706
X158.Y-96.
X158.Y-100.
X161.Y-100.
X161.Y-107.
X162.25Y-84.75
X178.5Y-86.75
X178.5Y-95.25
X183.Y-78.
X183.Y-93.
X188.5Y-94.5
X188.5Y-106.
X190.5Y-82.5
X190.5Y-89.
X191.Y-100.
X191.Y-106.
X199.5Y-82.
X199.5Y-90.5
X200.Y-106.
X200.004Y-101.895
X201.5Y-74.25
X201.5Y-82.
X201.5Y-94.5
X209.Y-103.195
X209.Y-106.
X215.25Y-76.5
X218.25Y-76.5
X220.Y-74.25
T2
X165.88Y-80.5
X165.88Y-83.04
X173.5Y-80.5
X173.5Y-83.04
X163.75Y-115.
X163.75Y-118.5
X165.88Y-92.46
X165.88Y-95.
X173.5Y-92.46
X173.5Y-95.
X165.88Y-86.46
X165.88Y-89.
X173.5Y-86.46
X173.5Y-89.
X165.88Y-74.5
X165.88Y-77.04
X173.5Y-74.5
X173.5Y-77.04
X203.Y-56.5
X203.Y-60.
X165.88Y-68.46
X165.88Y-71.
X173.5Y-68.46
X173.5Y-71.
T3
X226.Y-68.7
X226.Y-73.7
X226.Y-78.7
X231.Y-66.2
X231.Y-71.2
X231.Y-76.2
X226.Y-85.5
X226.Y-90.5
X226.Y-95.5
X226.Y-100.5
X226.Y-105.5
X231.Y-83.
X231.Y-88.
X231.Y-93.
X231.Y-98.
X231.Y-103.
X144.Y-67.3
X149.Y-64.8
T4
X178.42Y-107.5
X180.96Y-107.5
X183.5Y-107.5
X157.Y-111.92
X157.Y-114.46
X157.Y-117.
X219.5Y-78.21
X219.5Y-80.75
X219.5Y-83.29
T5
X143.Y-74.5
X143.Y-77.04
X143.Y-79.58
X143.Y-82.12
X143.Y-84.66
X143.Y-87.2
X143.Y-89.74
X143.Y-92.28
X143.Y-94.82
X143.Y-97.36
X143.Y-99.9
X143.Y-102.44
X143.Y-104.98
X143.Y-107.52
X143.Y-110.06
X143.Y-112.6
X143.Y-115.14
X145.54Y-74.5
X145.54Y-77.04
X145.54Y-79.58
X145.54Y-82.12
X145.54Y-84.66
X145.54Y-87.2
X145.54Y-89.74
X145.54Y-92.28
X145.54Y-94.82
X145.54Y-97.36
X145.54Y-99.9
X145.54Y-102.44
X145.54Y-104.98
X145.54Y-107.52
X145.54Y-110.06
X145.54Y-112.6
X145.54Y-115.14
T6
X209.Y-58.5
X231.5Y-58.5
T7
X220.25Y-58.5
T8
X238.5Y-81.5
X238.5Y-94.
X238.5Y-106.5
X135.Y-81.5
X135.Y-94.
X135.Y-106.5
T0
M30
